<svg xmlns="http://www.w3.org/2000/svg" viewBox="0 0 66.91 66.91"><defs><style>.cls-1{fill:#ffca05;}.cls-2{fill:#333;}</style></defs><g id="Слой_2" data-name="Слой 2"><g id="Слой_1-2" data-name="Слой 1"><path class="cls-1" d="M33.45,26.8a6.66,6.66,0,1,0,6.66,6.65,6.67,6.67,0,0,0-6.66-6.65Z"/><path class="cls-1" d="M33.45,26.8a6.66,6.66,0,1,0,6.66,6.65,6.67,6.67,0,0,0-6.66-6.65Z"/><path class="cls-1" d="M44.54,16H22.37A6.43,6.43,0,0,0,16,22.37V44.54A6.43,6.43,0,0,0,22.37,51H44.54A6.43,6.43,0,0,0,51,44.54V22.37A6.43,6.43,0,0,0,44.54,16Z"/><path class="cls-1" d="M33.45,45A11.53,11.53,0,1,1,45,33.45,11.54,11.54,0,0,1,33.45,45Z"/><path class="cls-1" d="M45.35,24.31a2.73,2.73,0,1,1,2.72-2.72,2.72,2.72,0,0,1-2.72,2.72Z"/><path class="cls-1" d="M33.45,26.8a6.66,6.66,0,1,0,6.66,6.65,6.67,6.67,0,0,0-6.66-6.65Z"/><path class="cls-1" d="M44.54,16H22.37A6.43,6.43,0,0,0,16,22.37V44.54A6.43,6.43,0,0,0,22.37,51H44.54A6.43,6.43,0,0,0,51,44.54V22.37A6.43,6.43,0,0,0,44.54,16Z"/><path class="cls-1" d="M33.45,45A11.53,11.53,0,1,1,45,33.45,11.54,11.54,0,0,1,33.45,45Z"/><path class="cls-1" d="M45.35,24.31a2.73,2.73,0,1,1,2.72-2.72,2.72,2.72,0,0,1-2.72,2.72Z"/><path class="cls-1" d="M33.45,26.8a6.66,6.66,0,1,0,6.66,6.65,6.67,6.67,0,0,0-6.66-6.65Z"/><rect class="cls-1" width="66.91" height="66.91" rx="2"/><rect class="cls-2" x="11.08" y="11.08" width="44.74" height="44.74" rx="11.29"/><path class="cls-1" d="M44.54,16H22.37A6.43,6.43,0,0,0,16,22.37V44.54A6.43,6.43,0,0,0,22.37,51H44.54A6.43,6.43,0,0,0,51,44.54V22.37A6.43,6.43,0,0,0,44.54,16Z"/><path class="cls-1" d="M33.45,45A11.53,11.53,0,1,1,45,33.45,11.54,11.54,0,0,1,33.45,45Z"/><path class="cls-1" d="M45.35,24.31a2.73,2.73,0,1,1,2.72-2.72,2.72,2.72,0,0,1-2.72,2.72Z"/><path class="cls-1" d="M33.45,26.8a6.66,6.66,0,1,0,6.66,6.65,6.67,6.67,0,0,0-6.66-6.65Z"/><path class="cls-1" d="M33.45,26.8a6.66,6.66,0,1,0,6.66,6.65,6.67,6.67,0,0,0-6.66-6.65Z"/><path class="cls-1" d="M33.45,26.8a6.66,6.66,0,1,0,6.66,6.65,6.67,6.67,0,0,0-6.66-6.65Z"/><path class="cls-1" d="M44.54,16H22.37A6.43,6.43,0,0,0,16,22.37V44.54A6.43,6.43,0,0,0,22.37,51H44.54A6.43,6.43,0,0,0,51,44.54V22.37A6.43,6.43,0,0,0,44.54,16Z"/><path class="cls-1" d="M33.45,45A11.53,11.53,0,1,1,45,33.45,11.54,11.54,0,0,1,33.45,45Z"/><path class="cls-1" d="M45.35,24.31a2.73,2.73,0,1,1,2.72-2.72,2.72,2.72,0,0,1-2.72,2.72Z"/><path class="cls-1" d="M33.45,26.8a6.66,6.66,0,1,0,6.66,6.65,6.67,6.67,0,0,0-6.66-6.65Z"/><path class="cls-1" d="M33.45,26.8a6.66,6.66,0,1,0,6.66,6.65,6.67,6.67,0,0,0-6.66-6.65Z"/><path class="cls-1" d="M33.45,26.8a6.66,6.66,0,1,0,6.66,6.65,6.67,6.67,0,0,0-6.66-6.65Z"/><path class="cls-1" d="M44.54,16H22.37A6.43,6.43,0,0,0,16,22.37V44.54A6.43,6.43,0,0,0,22.37,51H44.54A6.43,6.43,0,0,0,51,44.54V22.37A6.43,6.43,0,0,0,44.54,16Z"/><path class="cls-2" d="M33.45,45A11.53,11.53,0,1,1,45,33.45,11.54,11.54,0,0,1,33.45,45Z"/><path class="cls-2" d="M45.35,24.31a2.73,2.73,0,1,1,2.72-2.72,2.72,2.72,0,0,1-2.72,2.72Z"/><path class="cls-1" d="M33.45,26.8a6.66,6.66,0,1,0,6.66,6.65,6.67,6.67,0,0,0-6.66-6.65Z"/></g></g></svg>