<svg xmlns="http://www.w3.org/2000/svg" viewBox="0 0 67 69"><defs><style>.cls-1,.cls-3{fill:#333;}.cls-2{fill:#ffca05;}.cls-3{stroke:#ffca05;stroke-miterlimit:10;stroke-width:0.75px;}.cls-4{fill:#ffbc00;}</style></defs><g id="Слой_2" data-name="Слой 2"><g id="Слой_1-2" data-name="Слой 1"><rect class="cls-1" width="67" height="69" rx="1.72"/><rect class="cls-1" width="67" height="69" rx="1.72"/><path class="cls-2" d="M52.62,19.16l-6.17,31.1a2.27,2.27,0,0,1-3.23,1.12L29,40.47,23.81,38,15.09,35s-1.33-.47-1.46-1.51,1.51-1.59,1.51-1.59L49.77,18.34S52.62,17.09,52.62,19.16Z"/><path class="cls-3" d="M27.89,49.91s-.42,0-.93-1.68S23.81,38,23.81,38L44.73,24.68s1.2-.73,1.16,0c0,0,.22.13-.43.73S29,40.21,29,40.21"/><path class="cls-4" d="M34.44,44.65l-5.63,5.13a1,1,0,0,1-.92.13L29,40.37"/></g></g></svg>