<svg xmlns="http://www.w3.org/2000/svg" viewBox="0 0 66.83 69.26"><defs><style>.cls-1,.cls-3{fill:#ffca05;}.cls-2{fill:#333;}.cls-3{stroke:#393939;stroke-miterlimit:10;stroke-width:0.75px;}.cls-4{fill:#1f2021;}</style></defs><g id="Слой_2" data-name="Слой 2"><g id="Слой_1-2" data-name="Слой 1"><rect class="cls-1" width="66.83" height="69.26" rx="1.72"/><path class="cls-2" d="M52.92,19.16l-6.17,31.1a2.29,2.29,0,0,1-3.24,1.12L29.28,40.46,24.1,38,15.39,35s-1.34-.47-1.47-1.51,1.51-1.6,1.51-1.6L50.07,18.34S52.92,17.09,52.92,19.16Z"/><path class="cls-3" d="M28.19,49.91s-.42,0-.94-1.68S24.1,38,24.1,38L45,24.68s1.21-.74,1.17,0c0,0,.21.13-.43.73s-16.44,14.8-16.44,14.8"/><path class="cls-4" d="M34.74,44.65l-5.63,5.13a1,1,0,0,1-.92.13l1.07-9.54"/></g></g></svg>